<svg width="49" height="49" viewBox="0 0 49 49" fill="none" xmlns="http://www.w3.org/2000/svg">
<path d="M11.7699 5.56759C12.9515 5.62574 13.885 5.68388 14.8204 5.71296C15.3516 5.7304 15.7949 5.93197 15.6621 6.48048C15.5957 6.75765 15.0997 7.12396 14.7989 7.12396C13.1155 7.12009 11.4321 7.02512 9.74864 6.94371C9.02214 6.90883 8.75654 6.47079 8.98699 5.82537C9.54553 4.25155 10.1236 2.68161 10.77 1.14268C10.8716 0.898465 11.3598 0.815122 11.6703 0.65619C11.8129 1.00119 12.1312 1.38883 12.0609 1.68344C11.8793 2.44515 11.5258 3.1681 11.1704 4.09262C11.6274 3.84647 11.9027 3.70886 12.1703 3.5538C26.5908 -4.85993 45.2296 3.64296 48.1239 19.9994C49.4734 27.6263 47.4911 34.3867 42.3998 40.2498C42.2104 40.4688 42.0307 40.7517 41.7827 40.8506C41.5308 40.9494 41.1011 40.9669 40.9351 40.8176C40.7594 40.6587 40.7066 40.2381 40.773 39.9745C40.8375 39.7226 41.1207 39.5249 41.312 39.3078C52.9633 26.0292 46.087 5.71102 28.698 2.16411C22.8607 0.974055 17.3729 2.10209 12.2836 5.16057C12.18 5.22259 12.0922 5.31175 11.7699 5.56759Z" fill="#F47D45"/>
<path d="M37.1857 42.7237C36.3452 42.663 35.62 42.6943 34.9417 42.5297C34.5547 42.4356 34.2458 42.0219 33.9018 41.7533C34.2712 41.522 34.6465 41.0888 35.0101 41.0966C36.4331 41.126 37.8542 41.2946 39.2772 41.4103C40.0083 41.4691 40.2624 41.92 40.065 42.5551C39.6115 44.0117 39.1287 45.4624 38.5696 46.8798C38.4641 47.1444 37.9422 47.2425 37.6138 47.4189C37.4867 47.0582 37.2111 46.672 37.2658 46.3426C37.3753 45.6879 37.6666 45.0645 37.9383 44.2666C37.6255 44.4175 37.4594 44.4842 37.3088 44.5744C22.8831 53.1825 4.59688 45.3193 1.08623 28.8598C-0.57136 21.0809 1.30516 14.0313 6.47535 7.92858C6.60045 7.77959 6.71773 7.54827 6.87215 7.51494C7.22791 7.43652 7.60712 7.45613 7.97656 7.43652C7.96483 7.78351 8.08016 8.21676 7.91596 8.46181C7.4097 9.21265 6.75682 9.8635 6.2271 10.6006C-3.61679 24.2822 4.59297 43.8255 21.2236 46.3426C26.5912 47.1543 31.6031 46.1839 36.2846 43.4471C36.5074 43.3158 36.7244 43.1727 36.9394 43.0296C36.9922 42.9943 37.0215 42.9315 37.1857 42.7237Z" fill="#F47D45"/>
<path d="M22.0093 11.8574C19.1215 9.22903 18.779 6.31703 20.9779 4.10526C22.9245 2.14739 26.2228 2.1712 28.1353 4.15485C30.2501 6.34877 29.8636 9.38772 27.0799 11.8058C27.3944 11.8415 27.6287 11.8792 27.861 11.8911C30.6907 12.02 32.8515 14.1941 32.9096 16.9871C32.9256 17.8103 32.8856 18.6335 32.9216 19.4548C32.9557 20.2462 32.6453 20.5954 31.8222 20.5914C26.9378 20.5775 22.0533 20.5835 17.1689 20.5934C16.4099 20.5954 16.0835 20.2661 16.1135 19.5103C16.1456 18.7208 16.1135 17.9313 16.1215 17.1418C16.1516 14.0592 18.2583 11.9506 21.3664 11.8851C21.5286 11.8832 21.6889 11.8713 22.0093 11.8574ZM31.4437 19.0342C31.4437 18.3776 31.4517 17.8262 31.4417 17.2727C31.3976 14.8428 29.8816 13.353 27.4304 13.3411C25.636 13.3332 23.8397 13.4126 22.0493 13.3233C19.1635 13.1785 16.9086 15.1284 17.7577 19.0342C22.2596 19.0342 26.7715 19.0342 31.4437 19.0342ZM24.5807 10.816C26.5052 10.8259 28.0492 9.354 28.0592 7.49929C28.0692 5.67631 26.5032 4.15882 24.6027 4.1489C22.6641 4.14096 21.1401 5.593 21.1341 7.45961C21.1261 9.30044 22.6742 10.808 24.5807 10.816Z" fill="#F47D45"/>
<path d="M21.9261 34.3487C19.8324 31.9851 19.7184 29.6097 21.5476 27.8094C23.1913 26.1937 25.8085 26.1584 27.4676 27.7309C29.3122 29.4801 29.2176 31.8437 27.1721 34.3193C27.3633 34.3821 27.5352 34.4489 27.711 34.496C30.2142 35.1811 31.688 37.0501 31.7131 39.6571C31.7401 42.3545 31.8753 42.117 29.3644 42.119C25.7776 42.1209 22.1907 42.1209 18.6039 42.117C17.4276 42.115 17.2982 41.9933 17.3137 40.7565C17.3233 39.9457 17.2673 39.1055 17.4528 38.332C18.0052 36.0233 19.5948 34.8022 21.9261 34.3487ZM30.1543 40.5798C30.3282 37.855 29.0804 36.0273 26.921 35.9055C25.2618 35.8113 23.5872 35.8054 21.9281 35.9134C19.6991 36.0606 18.2524 38.3556 18.8859 40.5798C22.6195 40.5798 26.357 40.5798 30.1543 40.5798ZM21.733 30.6442C21.6789 32.2109 22.9054 33.5262 24.4661 33.5713C25.9958 33.6165 27.2899 32.415 27.3498 30.8975C27.4116 29.3486 26.1677 28.0215 24.6051 27.9645C23.0792 27.9096 21.7871 29.1169 21.733 30.6442Z" fill="#F47D45"/>
<path d="M8.79286 25.3657C6.77056 22.9607 6.69226 20.8794 8.51979 19.2755C10.143 17.8506 12.7076 17.8416 14.3136 19.2574C16.1335 20.8614 16.0304 23.0349 13.9794 25.4272C15.383 25.6478 16.5517 26.2156 17.4397 27.2662C18.637 28.6802 18.5855 30.333 18.4365 31.9857C18.4174 32.1955 17.9209 32.5282 17.644 32.53C13.4619 32.5644 9.27982 32.5608 5.09772 32.53C4.83419 32.5282 4.41216 32.2714 4.33577 32.049C3.47835 29.5283 5.07289 26.5465 7.70819 25.6641C8.03474 25.5502 8.37465 25.4778 8.79286 25.3657ZM5.73554 31.1594C9.54144 31.1594 13.2843 31.1594 17.0215 31.1594C17.2812 28.3059 15.8146 26.7924 12.8527 26.7852C11.8406 26.7834 10.8285 26.7834 9.81643 26.7852C6.94815 26.7906 5.48346 28.3313 5.73554 31.1594ZM11.4644 19.6101C9.94437 19.5811 8.69547 20.6823 8.64391 22.0964C8.59235 23.5303 9.83361 24.7437 11.3747 24.7654C12.8661 24.7853 14.1608 23.6497 14.2143 22.2718C14.2697 20.8469 13.0227 19.6408 11.4644 19.6101Z" fill="#F47D45"/>
<path d="M35.1245 25.3615C33.0702 22.9822 32.9931 20.8955 34.8526 19.2713C36.5057 17.826 39.1503 17.8477 40.7706 19.3183C42.5336 20.919 42.4025 23.1231 40.3694 25.4139C41.845 25.6669 43.0757 26.2631 43.9726 27.4049C45.0702 28.8014 44.9776 30.3931 44.8754 31.9811C44.8329 32.6261 44.2253 32.5303 43.7585 32.5303C40.3674 32.5358 36.9744 32.534 33.5833 32.534C32.8465 32.534 32.1019 32.5972 31.3805 32.5014C31.0776 32.4617 30.6108 32.1004 30.5838 31.8529C30.2597 28.7436 31.1393 26.2378 35.1245 25.3615ZM43.4074 31.1645C43.7643 28.46 42.2192 26.7852 39.4357 26.7762C38.2224 26.7725 37.0091 26.7527 35.7958 26.7816C33.1782 26.843 31.6312 28.6587 32.0922 31.1645C35.8363 31.1645 39.5901 31.1645 43.4074 31.1645ZM37.7807 24.7021C39.2949 24.6985 40.57 23.5513 40.5989 22.1638C40.6278 20.7672 39.3065 19.5459 37.7653 19.5459C36.2568 19.5459 34.976 20.7004 34.9509 22.0807C34.9259 23.4862 36.2414 24.7057 37.7807 24.7021Z" fill="#F47D45"/>
</svg>
