<?xml version="1.0" encoding="UTF-8"?>
<svg width="41px" height="42px" viewBox="0 0 43 36" version="1.1" xmlns="http://www.w3.org/2000/svg" xmlns:xlink="http://www.w3.org/1999/xlink">
    <!-- Generator: Sketch 48.2 (47327) - http://www.bohemiancoding.com/sketch -->
    <title>159444</title>
    <desc>Created with Sketch.</desc>
    <defs></defs>
    <g id="01-GeM-Landing-Copy-2" stroke="none" stroke-width="1" fill="none" fill-rule="evenodd" transform="translate(-935.000000, -651.000000)">
        <g id="Group-42" transform="translate(893.000000, 633.000000)" fill="#00A3FF" fill-rule="nonzero">
            <g id="Group-39" transform="translate(27.000000, 0.000000)">
                <g id="159444" transform="translate(15.000000, 18.000000)">
                    <path d="M6.54545455,9.90775666 L6.54545455,26.0922433 C6.54545455,27.9460532 8.01303804,29.4545455 9.81657439,29.4545455 L15.2360243,29.4545455 L15.2360243,27.3735531 C15.2360243,27.2008943 15.2448652,27.0373229 15.2713877,26.8646641 L9.82541525,26.8646641 C9.40989462,26.8646641 9.07394178,26.5193466 9.07394178,26.0922433 L9.07394178,15.9235513 L40.0258082,15.9235513 L40.0258082,26.0922433 C40.0258082,26.5193466 39.6898553,26.8646641 39.2743347,26.8646641 L33.8283622,26.8646641 C33.8460439,27.0282355 33.8548848,27.2008943 33.8548848,27.3735531 L33.8548848,29.4545455 L39.2743347,29.4545455 C41.077871,29.4545455 42.5454545,27.9460532 42.5454545,26.0922433 L42.5454545,9.90775666 C42.5454545,8.05394685 41.077871,6.54545455 39.2743347,6.54545455 L9.81657439,6.54545455 C8.00419718,6.54545455 6.54545455,8.04485954 6.54545455,9.90775666 Z M40.0258082,9.90775666 L40.0258082,11.6252569 L9.06510091,11.6252569 L9.06510091,9.90775666 C9.06510091,9.48065342 9.40105376,9.13533591 9.81657439,9.13533591 L39.2743347,9.13533591 C39.6898553,9.13533591 40.0258082,9.48065342 40.0258082,9.90775666 Z" id="Shape"></path>
                    <path d="M3.27111984,22.9090909 L4.8978389,22.9090909 L4.8978389,20.3202365 L3.27111984,20.3202365 C2.85559921,20.3202365 2.51964637,19.9750559 2.51964637,19.548122 L2.51964637,3.36096893 C2.51964637,2.93403504 2.85559921,2.58885444 3.27111984,2.58885444 L32.7288802,2.58885444 C33.1444008,2.58885444 33.4803536,2.93403504 33.4803536,3.36096893 L33.4803536,4.91428159 L36,4.91428159 L36,3.36096893 C36,1.50789417 34.5324165,0 32.7288802,0 L3.27111984,0 C1.4675835,0 0,1.50789417 0,3.36096893 L0,19.5390383 C0,21.4011967 1.45874263,22.9090909 3.27111984,22.9090909 Z" id="Shape"></path>
                    <path d="M22.2593744,25.6065772 L20.0204866,25.6065772 L19.8975672,25.6065772 C19.1512713,25.6065772 18.5454545,26.227483 18.5454545,26.9923669 L18.5454545,34.6142103 C18.5454545,35.3790942 19.1512713,36 19.8975672,36 L30.284251,36 C31.0305469,36 31.6363636,35.3790942 31.6363636,34.6142103 L31.6363636,26.9923669 C31.6363636,26.227483 31.0305469,25.6065772 30.284251,25.6065772 L30.2491312,25.6065772 L30.2491312,23.9418298 C30.2491312,21.2152436 28.2824218,18.8306054 25.6308762,18.569645 C22.7686117,18.2906873 20.3190049,20.4593583 20.0468264,23.2669322 C20.0204866,23.5458899 20.2312054,23.7798544 20.5033839,23.7798544 L21.8379367,23.7798544 C22.0662155,23.7798544 22.2505945,23.6088803 22.2857143,23.3749158 C22.4964331,21.8181521 23.8924456,20.6393309 25.5167368,20.8552982 C26.9654289,21.0442695 28.0102433,22.385066 28.0102433,23.8788394 L28.0102433,25.5975785 L22.2593744,25.5975785 L22.2593744,25.6065772 Z M25.8942747,31.1407374 C25.7889153,31.2217251 25.7625755,31.2937142 25.7625755,31.4196951 C25.7625755,31.9776104 25.7625755,32.5355257 25.7625755,33.0934411 C25.7713554,33.3274056 25.657216,33.5523714 25.4552771,33.660355 C24.9811597,33.9123168 24.4982623,33.5613701 24.4982623,33.0934411 C24.4982623,32.5355257 24.4982623,31.9686118 24.4982623,31.4106964 C24.4982623,31.2937142 24.4719224,31.2217251 24.375343,31.149736 C23.8836656,30.7717934 23.7168465,30.141889 23.9626852,29.574975 C24.1997439,29.0260583 24.7880007,28.7111061 25.3411377,28.8190897 C25.9557344,28.9450706 26.3859521,29.4579927 26.394732,30.0878971 C26.4122919,30.5288302 26.2366929,30.8887756 25.8942747,31.1407374 Z" id="Shape"></path>
                </g>
            </g>
        </g>
    </g>
</svg>